<?xml version="1.0"?>
<svg xmlns="http://www.w3.org/2000/svg" id="Layer_1" enable-background="new 0 0 512.003 512.003" height="512px" viewBox="0 0 512.003 512.003" width="512px"><g><path d="m480.215 198.208c-2.685-7.837-11.213-12.017-19.051-9.33-7.837 2.684-12.015 11.213-9.33 19.051 7.411 21.637 11.168 44.204 11.168 67.074 0 114.141-92.86 207-207 207s-207.001-92.86-207.001-207c0-106.006 80.101-193.641 182.953-205.596l-20.268 11.322c-7.232 4.04-9.82 13.179-5.78 20.411 2.747 4.917 7.85 7.688 13.109 7.687 2.476 0 4.987-.614 7.302-1.907l70.547-39.411c4.745-2.65 7.685-7.661 7.685-13.095s-2.94-10.445-7.685-13.095l-70.547-39.411c-7.233-4.041-16.37-1.452-20.411 5.78-4.04 7.232-1.453 16.371 5.78 20.411l19.945 11.142c-54.096 5.49-104.246 29.209-143.214 68.178-44.764 44.763-69.416 104.279-69.416 167.584s24.652 122.821 69.416 167.584c44.763 44.764 104.279 69.416 167.584 69.416s122.821-24.652 167.584-69.416c44.764-44.763 69.416-104.279 69.416-167.584.001-26.185-4.301-52.022-12.786-76.795z" fill="#FFFFFF"/><path d="m217.03 263.498c6.01-10.41 7.606-22.537 4.496-34.147s-10.557-21.314-20.967-27.324c-10.409-6.01-22.536-7.606-34.146-4.496-11.611 3.111-21.314 10.557-27.324 20.966-6.01 10.41-7.607 22.537-4.496 34.147s10.557 21.314 20.966 27.324c7.069 4.082 14.794 6.021 22.425 6.02 15.563 0 30.721-8.071 39.046-22.49zm-25.98-15.001c-4.135 7.163-13.326 9.625-20.49 5.491-3.47-2.003-5.952-5.238-6.989-9.108s-.505-7.912 1.499-11.382 5.238-5.952 9.108-6.989c1.292-.346 2.604-.518 3.907-.518 2.599 0 5.165.682 7.476 2.016 3.47 2.003 5.952 5.238 6.989 9.108 1.035 3.871.503 7.913-1.5 11.382z" fill="#FFFFFF"/><path d="m294.972 308.497c-12.407 21.489-5.018 49.065 16.471 61.471 7.069 4.082 14.794 6.02 22.424 6.02 15.563 0 30.722-8.072 39.047-22.491 12.406-21.488 5.018-49.064-16.471-61.471-21.488-12.406-49.064-5.018-61.471 16.471zm25.981 15c2.775-4.807 7.828-7.497 13.016-7.497 2.543 0 5.119.646 7.475 2.006 7.163 4.136 9.626 13.328 5.491 20.491-4.136 7.162-13.327 9.625-20.491 5.491-7.164-4.136-9.627-13.328-5.491-20.491z" fill="#FFFFFF"/><path d="m283.261 208.783-80.5 139.43c-4.142 7.174-1.684 16.348 5.49 20.49 2.362 1.364 4.941 2.012 7.486 2.012 5.184 0 10.226-2.69 13.004-7.502l80.5-139.43c4.142-7.174 1.684-16.348-5.49-20.49-7.175-4.145-16.348-1.684-20.49 5.49z" fill="#FFFFFF"/></g></svg>
