<?xml version="1.0" encoding="utf-8"?>
<!-- Generator: Adobe Illustrator 24.3.0, SVG Export Plug-In . SVG Version: 6.00 Build 0)  -->
<svg version="1.1" id="Layer_1" xmlns="http://www.w3.org/2000/svg" xmlns:xlink="http://www.w3.org/1999/xlink" x="0px" y="0px"
	 viewBox="0 0 1500 500" style="enable-background:new 0 0 1500 500;" xml:space="preserve">
<style type="text/css">
	.st0{fill:#443629;}
	.st1{fill:#739172;}
</style>
<g>
	<g>
		<path class="st0" d="M240.64,316.12l44.38,93.84c0.23,0.69,0.69,3,0.69,4.16c0,3.47-2.31,6.7-6.7,6.7h-13.64
			c-3,0-5.08-1.62-6.7-4.85l-41.6-88.06c-14.33,5.78-30.74,8.55-49,8.55h-94.3v75.58c0,5.78-3,8.78-9.01,8.78H56.2
			c-5.78,0-8.78-3-8.78-8.78V87.08c0-5.32,3.7-9.25,8.09-9.48h112.56c81.59,0,132.2,63.1,132.2,129.66
			C300.27,250.25,279,292.78,240.64,316.12z M168.06,310.12c67.03,0,105.85-50.39,105.85-102.85s-38.83-103.54-105.85-103.54h-94.3
			v206.4H168.06z"/>
		<path class="st1" d="M444.03,189.7c65.64,0,118.34,52.7,118.34,118.34c0,65.41-52.7,118.1-118.34,118.1
			c-65.41,0-117.87-52.7-117.87-118.1C326.15,242.4,378.62,189.7,444.03,189.7z M444.49,400.72c50.85,0,92.91-41.83,92.91-92.68
			c0-51.08-42.06-93.14-92.91-93.14c-50.85,0-92.91,42.06-92.91,93.14C351.58,358.88,393.64,400.72,444.49,400.72z"/>
		<path class="st0" d="M605.59,85.92c0-5.55,2.77-8.32,8.32-8.32h220.96c5.55,0,9.01,2.31,9.01,8.55v8.09
			c0,5.32-3.47,8.55-9.01,8.55H631.01v172.65h165.02c5.32,0,8.55,2.54,8.55,8.78v8.32c0,5.32-3,8.55-8.55,8.55H631.01v111.63
			c0,5.32-3,8.09-8.78,8.09h-8.32c-5.55,0-8.32-2.77-8.32-8.09V85.92z"/>
		<path class="st0" d="M875.55,204.72c0-7.17,3.47-10.63,10.17-10.63h5.08c7.63,0,11.33,3.47,11.33,10.63v9.24v14.79
			c8.78-22.42,31.66-37.9,60.55-37.9c18.49,0,49.23,10.86,49.23,21.26c0,6.24-8.55,17.57-12.25,17.57c-2.54,0-3.47,0-5.32-1.16
			c-9.01-5.55-21.26-11.09-33.28-11.09c-34.21,0-58.94,34.21-58.94,70.03l0.23,125.04c0,5.55-2.77,8.32-8.55,8.32h-2.08h-7.4
			c-5.78,0-8.78-2.77-8.78-8.32v-2.31V204.72z"/>
		<path class="st0" d="M1229.4,412.27c0,5.32-3.47,8.55-8.78,8.55h-7.17c-5.55,0-8.32-3.24-8.55-8.55
			c-0.69-9.01-0.92-17.8-1.16-26.81c-14.56,23.81-42.53,40.68-73.73,40.68c-52.7,0-92.22-42.06-92.22-95.22V203.57
			c0-5.78,3.7-9.25,9.01-9.25h8.09c6.47,0,8.55,3.24,8.55,9.01v128.51c0.69,38.83,29.12,69.11,70.03,69.11
			c38.37,0,70.26-30.28,70.26-68.88v-129.2c0-5.78,2.77-8.55,8.55-8.55h8.09c6.01,0,9.01,2.77,9.01,8.55V412.27z"/>
		<path class="st0" d="M1302.21,106.26c11.09,0,20.11,9.01,20.11,20.11c0,11.09-9.01,20.11-20.11,20.11s-20.11-9.01-20.11-20.11
			C1282.1,115.28,1291.11,106.26,1302.21,106.26z M1289.03,202.87c0-5.32,3.47-8.55,8.78-8.55h8.32c5.55,0,8.55,3.24,8.55,8.55
			V412.5c0,5.55-2.77,8.32-8.55,8.32h-8.09c-6.01,0-9.01-2.77-9.01-8.32V202.87z"/>
		<path class="st0" d="M1452.9,397.25c5.32,0,9.71,2.77,9.71,9.01v7.63c0,7.17-4.62,9.01-10.86,9.01h-6.93
			c-31.43,0-55.47-4.39-55.47-55.01V219.28h-31.9c-6.24,0-9.01-2.08-9.01-8.32v-8.55c0-6.24,2.77-8.32,9.01-8.32h31.9v-68.18
			c0-4.62,2.54-7.4,7.63-8.09l11.56-1.62c6.24,0,7.86,4.16,7.86,9.71v68.18h39.98c5.55,0,9.01,2.54,9.01,8.78v7.63
			c0,6.24-3.47,8.78-9.01,8.78h-39.98v142.37c0,32.59,8.55,33.74,27.97,35.59H1452.9z"/>
	</g>
	<path class="st1" d="M480.57,165.35c0,0,3.31-86.18,91.15-86.18C571.72,79.18,578.34,143.81,480.57,165.35z"/>
</g>
</svg>
